<?xml version="1.0" encoding="UTF-8" standalone="no"?>
<!DOCTYPE svg PUBLIC "-//W3C//DTD SVG 1.1//EN" "http://www.w3.org/Graphics/SVG/1.1/DTD/svg11.dtd">
<svg width="100%" height="100%" viewBox="0 0 800 800" version="1.1" xmlns="http://www.w3.org/2000/svg" xmlns:xlink="http://www.w3.org/1999/xlink" xml:space="preserve" xmlns:serif="http://www.serif.com/" style="fill-rule:evenodd;clip-rule:evenodd;stroke-linecap:round;stroke-linejoin:round;stroke-miterlimit:1;">
    <g transform="matrix(1,0,0,1,-235,-1950)">
        <g transform="matrix(2.02015,0,0,2.02017,-51.8034,1393.69)">
            <rect x="142.327" y="275.741" width="396.011" height="396.011" style="fill:none;"/>
            <clipPath id="_clip1">
                <rect x="142.327" y="275.741" width="396.011" height="396.011"/>
            </clipPath>
            <g clip-path="url(#_clip1)">
                <rect x="142.327" y="275.741" width="396.011" height="396.011" style="fill:none;"/>
                <g transform="matrix(0.430249,0,0,0.430243,66.8158,-62.7504)">
                    <path d="M386.047,1489.96L306.047,1119.96L518.047,1273.96L635.719,1060.96L753.391,1273.96L965.391,1119.96L885.391,1489.96L386.047,1489.96Z" style="fill:none;stroke:black;stroke-width:25.57px;"/>
                </g>
                <g transform="matrix(1,0,0,1,6.82121e-13,-7.92012)">
                    <g transform="matrix(0.430249,0,0,0.430243,61.4041,-67.9133)">
                        <circle cx="648.297" cy="1000.21" r="44.25" style="fill:none;stroke:black;stroke-width:25.57px;stroke-linejoin:miter;"/>
                    </g>
                    <g transform="matrix(0.430249,0,0,0.430243,-80.4368,-40.808)">
                        <circle cx="648.297" cy="1000.21" r="44.25" style="fill:none;stroke:black;stroke-width:25.57px;stroke-linejoin:miter;"/>
                    </g>
                    <g transform="matrix(0.430249,0,0,0.430243,203.245,-40.808)">
                        <circle cx="648.297" cy="1000.21" r="44.25" style="fill:none;stroke:black;stroke-width:25.57px;stroke-linejoin:miter;"/>
                    </g>
                </g>
                <g transform="matrix(0.495014,0,0,0.495007,-889.161,-119.586)">
                    <path d="M2266.9,1459.34L2700.62,1459.34" style="fill:none;stroke:black;stroke-width:22.22px;"/>
                </g>
                <g transform="matrix(0.495007,0,0,0.495007,59.0219,-33.6195)">
                    <g transform="matrix(177.778,0,0,177.778,507.141,1172.81)">
                        <path d="M0.084,-0.144L0.054,-0.027C0.123,0.029 0.22,0.066 0.327,0.066C0.494,0.066 0.623,-0.033 0.623,-0.177C0.623,-0.265 0.565,-0.343 0.454,-0.369C0.526,-0.396 0.601,-0.462 0.601,-0.551C0.601,-0.677 0.479,-0.77 0.326,-0.77C0.229,-0.77 0.155,-0.744 0.094,-0.697L0.121,-0.588C0.185,-0.639 0.254,-0.658 0.326,-0.658C0.412,-0.658 0.482,-0.609 0.482,-0.544C0.482,-0.475 0.404,-0.416 0.316,-0.416L0.223,-0.416L0.223,-0.311L0.319,-0.311C0.437,-0.311 0.502,-0.247 0.502,-0.175C0.502,-0.1 0.425,-0.046 0.328,-0.046C0.239,-0.046 0.149,-0.091 0.084,-0.144Z" style="fill-rule:nonzero;"/>
                    </g>
                </g>
            </g>
        </g>
    </g>
</svg>
